# Blender v2.91.0 OBJ File: 'spot2.blend'
# www.blender.org
mtllib spot.mtl
o Cube
v 4.738971 1.000000 -1.000000
v 4.738971 -1.000000 -1.000000
v 4.738971 1.000000 1.000000
v 4.738971 -1.000000 1.000000
v -4.738971 1.000000 -1.000000
v -4.738971 -1.000000 -1.000000
v -4.738971 1.000000 1.000000
v -4.738971 -1.000000 1.000000
vt 0.625000 0.500000
vt 0.875000 0.500000
vt 0.875000 0.750000
vt 0.625000 0.750000
vt 0.375000 0.750000
vt 0.625000 1.000000
vt 0.375000 1.000000
vt 0.375000 0.000000
vt 0.625000 0.000000
vt 0.625000 0.250000
vt 0.375000 0.250000
vt 0.125000 0.500000
vt 0.375000 0.500000
vt 0.125000 0.750000
vn 0.0000 1.0000 0.0000
vn 0.0000 0.0000 1.0000
vn -1.0000 0.0000 0.0000
vn 0.0000 -1.0000 0.0000
vn 1.0000 0.0000 0.0000
vn 0.0000 0.0000 -1.0000
usemtl Material
s off
f 1/1/1 5/2/1 7/3/1 3/4/1
f 4/5/2 3/4/2 7/6/2 8/7/2
f 8/8/3 7/9/3 5/10/3 6/11/3
f 6/12/4 2/13/4 4/5/4 8/14/4
f 2/13/5 1/1/5 3/4/5 4/5/5
f 6/11/6 5/10/6 1/1/6 2/13/6
o Cube.001_Cube.002
v -3.611714 -10.285343 2.181818
v -3.611715 0.184862 2.181818
v -3.611714 -10.285343 1.099693
v -3.611715 0.184862 1.099693
v -2.529590 -10.285343 2.181818
v -2.529590 0.184862 2.181818
v -2.529590 -10.285343 1.099693
v -2.529590 0.184862 1.099693
v -3.611714 -5.597683 2.181818
v -3.611715 -5.378706 2.181818
v -3.611715 -5.159728 2.181818
v -3.611715 -4.940751 2.181818
v -3.611715 -4.721774 2.181818
v -3.611715 -4.502796 2.181818
v -3.611715 -4.502796 1.099693
v -3.611715 -4.721774 1.099693
v -3.611715 -4.940751 1.099693
v -3.611715 -5.159728 1.099693
v -3.611715 -5.378706 1.099693
v -3.611714 -5.597683 1.099693
v -2.529590 -4.502796 1.099693
v -2.529590 -4.721774 1.099693
v -2.529590 -4.940751 1.099693
v -2.529590 -5.159728 1.099693
v -2.529590 -5.378706 1.099693
v -2.529590 -5.597683 1.099693
v -2.529590 -4.502796 2.181818
v -2.529590 -4.721774 2.181818
v -2.529590 -4.940751 2.181818
v -2.529590 -5.159728 2.181818
v -2.529590 -5.378706 2.181818
v -2.529590 -5.597683 2.181818
vt 0.555763 0.000000
vt 0.625000 0.000000
vt 0.625000 0.250000
vt 0.555763 0.250000
vt 0.625000 0.500000
vt 0.555763 0.500000
vt 0.625000 0.750000
vt 0.555763 0.750000
vt 0.625000 1.000000
vt 0.555763 1.000000
vt 0.125000 0.500000
vt 0.375000 0.500000
vt 0.375000 0.750000
vt 0.125000 0.750000
vt 0.875000 0.500000
vt 0.875000 0.750000
vt 0.444237 0.750000
vt 0.444236 1.000000
vt 0.375000 1.000000
vt 0.466542 0.750000
vt 0.466542 1.000000
vt 0.488847 0.750000
vt 0.488847 1.000000
vt 0.511153 0.750000
vt 0.511153 1.000000
vt 0.533458 0.750000
vt 0.533458 1.000000
vt 0.444237 0.500000
vt 0.466542 0.500000
vt 0.488847 0.500000
vt 0.511153 0.500000
vt 0.533458 0.500000
vt 0.375000 0.250000
vt 0.444237 0.250000
vt 0.466542 0.250000
vt 0.488847 0.250000
vt 0.511153 0.250000
vt 0.533458 0.250000
vt 0.375000 0.000000
vt 0.444236 0.000000
vt 0.466542 0.000000
vt 0.488847 0.000000
vt 0.511153 0.000000
vt 0.533458 0.000000
vn -1.0000 0.0000 0.0000
vn 0.0000 0.0000 -1.0000
vn 1.0000 0.0000 0.0000
vn 0.0000 0.0000 1.0000
vn 0.0000 -1.0000 0.0000
vn 0.0000 1.0000 0.0000
usemtl None
s off
f 22/15/7 10/16/7 12/17/7 23/18/7
f 23/18/8 12/17/8 16/19/8 29/20/8
f 29/20/9 16/19/9 14/21/9 35/22/9
f 35/22/10 14/21/10 10/23/10 22/24/10
f 11/25/11 15/26/11 13/27/11 9/28/11
f 16/19/12 12/29/12 10/30/12 14/21/12
f 13/27/10 40/31/10 17/32/10 9/33/10
f 40/31/10 39/34/10 18/35/10 17/32/10
f 39/34/10 38/36/10 19/37/10 18/35/10
f 38/36/10 37/38/10 20/39/10 19/37/10
f 37/38/10 36/40/10 21/41/10 20/39/10
f 36/40/10 35/22/10 22/24/10 21/41/10
f 15/26/9 34/42/9 40/31/9 13/27/9
f 34/42/9 33/43/9 39/34/9 40/31/9
f 33/43/9 32/44/9 38/36/9 39/34/9
f 32/44/9 31/45/9 37/38/9 38/36/9
f 31/45/9 30/46/9 36/40/9 37/38/9
f 30/46/9 29/20/9 35/22/9 36/40/9
f 11/47/8 28/48/8 34/42/8 15/26/8
f 28/48/8 27/49/8 33/43/8 34/42/8
f 27/49/8 26/50/8 32/44/8 33/43/8
f 26/50/8 25/51/8 31/45/8 32/44/8
f 25/51/8 24/52/8 30/46/8 31/45/8
f 24/52/8 23/18/8 29/20/8 30/46/8
f 9/53/7 17/54/7 28/48/7 11/47/7
f 17/54/7 18/55/7 27/49/7 28/48/7
f 18/55/7 19/56/7 26/50/7 27/49/7
f 19/56/7 20/57/7 25/51/7 26/50/7
f 20/57/7 21/58/7 24/52/7 25/51/7
f 21/58/7 22/15/7 23/18/7 24/52/7
o Cube.002_Cube.006
v 4.815453 -8.797441 2.181818
v 2.803942 0.364769 2.181818
v 4.815453 -8.797441 1.099693
v 2.803942 0.364769 1.099693
v 5.552329 -8.004971 2.181818
v 3.814087 -0.023304 2.181818
v 5.552329 -8.004971 1.099693
v 3.814087 -0.023304 1.099693
v 1.359518 -5.585162 2.181818
v 1.148789 -5.344853 2.181818
v 0.998872 -5.060896 2.181818
v 0.942650 -4.685433 2.181818
v 0.990721 -4.355747 2.181818
v 1.104219 -4.040254 2.181818
v 1.107876 -4.034528 1.099693
v 0.992308 -4.351594 1.099693
v 0.942929 -4.682222 1.099693
v 0.999614 -5.063800 1.099693
v 1.150924 -5.348094 1.099693
v 1.363885 -5.588992 1.099693
v 2.127050 -4.396736 1.099693
v 1.966237 -4.544320 1.099693
v 1.861570 -4.658103 1.099693
v 1.832046 -4.682816 1.099693
v 1.937710 -4.748017 1.099693
v 2.116932 -4.816897 1.099693
v 2.120394 -4.394027 2.181818
v 1.961710 -4.541280 2.181818
v 1.859094 -4.654857 2.181818
v 1.832784 -4.686539 2.181818
v 1.936595 -4.752415 2.181818
v 2.113818 -4.821895 2.181818
vt 0.555763 0.000000
vt 0.625000 0.000000
vt 0.625000 0.250000
vt 0.555763 0.250000
vt 0.625000 0.500000
vt 0.555763 0.500000
vt 0.625000 0.750000
vt 0.555763 0.750000
vt 0.625000 1.000000
vt 0.555763 1.000000
vt 0.125000 0.500000
vt 0.375000 0.500000
vt 0.375000 0.750000
vt 0.125000 0.750000
vt 0.875000 0.500000
vt 0.875000 0.750000
vt 0.444237 0.750000
vt 0.444236 1.000000
vt 0.375000 1.000000
vt 0.466542 0.750000
vt 0.466542 1.000000
vt 0.488847 0.750000
vt 0.488847 1.000000
vt 0.511153 0.750000
vt 0.511153 1.000000
vt 0.533458 0.750000
vt 0.533458 1.000000
vt 0.444237 0.500000
vt 0.466542 0.500000
vt 0.488847 0.500000
vt 0.511153 0.500000
vt 0.533458 0.500000
vt 0.375000 0.250000
vt 0.444237 0.250000
vt 0.466542 0.250000
vt 0.488847 0.250000
vt 0.511153 0.250000
vt 0.533458 0.250000
vt 0.375000 0.000000
vt 0.444236 0.000000
vt 0.466542 0.000000
vt 0.488847 0.000000
vt 0.511153 0.000000
vt 0.533458 0.000000
vn -0.9330 0.3599 -0.0006
vn 0.0000 0.0000 -1.0000
vn 0.9327 -0.3606 0.0033
vn 0.0000 0.0000 1.0000
vn 0.7323 -0.6810 0.0000
vn 0.3586 0.9335 0.0000
vn 0.6798 0.7334 0.0027
vn 0.3619 0.9322 0.0048
vn 0.5304 0.8477 0.0033
vn 0.7106 -0.7036 0.0004
vn 0.7390 -0.6737 0.0043
vn 0.6782 -0.7349 0.0055
vn -0.6808 -0.7324 -0.0001
vn -0.7505 -0.6608 -0.0001
vn -0.8835 -0.4684 0.0002
vn -0.9891 -0.1475 -0.0005
vn -0.9893 0.1460 -0.0004
vn -0.9402 0.3405 -0.0007
usemtl None
s off
f 54/59/13 42/60/13 44/61/13 55/62/13
f 55/62/14 44/61/14 48/63/14 61/64/14
f 61/64/15 48/63/15 46/65/15 67/66/15
f 67/66/16 46/65/16 42/67/16 54/68/16
f 43/69/17 47/70/17 45/71/17 41/72/17
f 48/63/18 44/73/18 42/74/18 46/65/18
f 45/71/16 72/75/16 49/76/16 41/77/16
f 72/75/16 71/78/16 50/79/16 49/76/16
f 71/78/16 70/80/16 51/81/16 50/79/16
f 70/80/16 69/82/16 52/83/16 51/81/16
f 69/82/16 68/84/16 53/85/16 52/83/16
f 68/84/16 67/66/16 54/68/16 53/85/16
f 47/70/19 66/86/19 72/75/19 45/71/19
f 66/86/20 65/87/20 71/78/20 72/75/20
f 65/87/21 64/88/21 70/80/21 71/78/21
f 64/88/22 63/89/22 69/82/22 70/80/22
f 63/89/23 62/90/23 68/84/23 69/82/23
f 62/90/24 61/64/24 67/66/24 68/84/24
f 43/91/14 60/92/14 66/86/14 47/70/14
f 60/92/14 59/93/14 65/87/14 66/86/14
f 59/93/14 58/94/14 64/88/14 65/87/14
f 58/94/14 57/95/14 63/89/14 64/88/14
f 57/95/14 56/96/14 62/90/14 63/89/14
f 56/96/14 55/62/14 61/64/14 62/90/14
f 41/97/25 49/98/25 60/92/25 43/91/25
f 49/98/26 50/99/26 59/93/26 60/92/26
f 50/99/27 51/100/27 58/94/27 59/93/27
f 51/100/28 52/101/28 57/95/28 58/94/28
f 52/101/29 53/102/29 56/96/29 57/95/29
f 53/102/30 54/59/30 55/62/30 56/96/30
o Cube.003_Cube.007
v -3.611714 -10.285343 -1.060758
v -3.611714 0.184863 -1.060758
v -3.611714 -10.285343 -2.142883
v -3.611714 0.184863 -2.142883
v -2.529590 -10.285343 -1.060758
v -2.529590 0.184863 -1.060758
v -2.529590 -10.285343 -2.142883
v -2.529590 0.184863 -2.142883
v -3.611714 -5.597683 -1.060758
v -3.611714 -5.378706 -1.060758
v -3.611714 -5.159728 -1.060758
v -3.611714 -4.940751 -1.060758
v -3.611714 -4.721773 -1.060758
v -3.611714 -4.502796 -1.060758
v -3.611714 -4.502796 -2.142883
v -3.611714 -4.721773 -2.142883
v -3.611714 -4.940751 -2.142883
v -3.611714 -5.159728 -2.142883
v -3.611714 -5.378706 -2.142883
v -3.611714 -5.597683 -2.142883
v -2.529590 -4.502796 -2.142883
v -2.529590 -4.721773 -2.142883
v -2.529590 -4.940751 -2.142883
v -2.529590 -5.159728 -2.142883
v -2.529590 -5.378706 -2.142883
v -2.529590 -5.597683 -2.142883
v -2.529590 -4.502796 -1.060758
v -2.529590 -4.721773 -1.060758
v -2.529590 -4.940751 -1.060758
v -2.529590 -5.159728 -1.060758
v -2.529590 -5.378706 -1.060758
v -2.529590 -5.597683 -1.060758
vt 0.555763 0.000000
vt 0.625000 0.000000
vt 0.625000 0.250000
vt 0.555763 0.250000
vt 0.625000 0.500000
vt 0.555763 0.500000
vt 0.625000 0.750000
vt 0.555763 0.750000
vt 0.625000 1.000000
vt 0.555763 1.000000
vt 0.125000 0.500000
vt 0.375000 0.500000
vt 0.375000 0.750000
vt 0.125000 0.750000
vt 0.875000 0.500000
vt 0.875000 0.750000
vt 0.444237 0.750000
vt 0.444236 1.000000
vt 0.375000 1.000000
vt 0.466542 0.750000
vt 0.466542 1.000000
vt 0.488847 0.750000
vt 0.488847 1.000000
vt 0.511153 0.750000
vt 0.511153 1.000000
vt 0.533458 0.750000
vt 0.533458 1.000000
vt 0.444237 0.500000
vt 0.466542 0.500000
vt 0.488847 0.500000
vt 0.511153 0.500000
vt 0.533458 0.500000
vt 0.375000 0.250000
vt 0.444237 0.250000
vt 0.466542 0.250000
vt 0.488847 0.250000
vt 0.511153 0.250000
vt 0.533458 0.250000
vt 0.375000 0.000000
vt 0.444236 0.000000
vt 0.466542 0.000000
vt 0.488847 0.000000
vt 0.511153 0.000000
vt 0.533458 0.000000
vn -1.0000 0.0000 0.0000
vn 0.0000 0.0000 -1.0000
vn 1.0000 0.0000 0.0000
vn 0.0000 0.0000 1.0000
vn 0.0000 -1.0000 0.0000
vn 0.0000 1.0000 0.0000
usemtl None
s off
f 86/103/31 74/104/31 76/105/31 87/106/31
f 87/106/32 76/105/32 80/107/32 93/108/32
f 93/108/33 80/107/33 78/109/33 99/110/33
f 99/110/34 78/109/34 74/111/34 86/112/34
f 75/113/35 79/114/35 77/115/35 73/116/35
f 80/107/36 76/117/36 74/118/36 78/109/36
f 77/115/34 104/119/34 81/120/34 73/121/34
f 104/119/34 103/122/34 82/123/34 81/120/34
f 103/122/34 102/124/34 83/125/34 82/123/34
f 102/124/34 101/126/34 84/127/34 83/125/34
f 101/126/34 100/128/34 85/129/34 84/127/34
f 100/128/34 99/110/34 86/112/34 85/129/34
f 79/114/33 98/130/33 104/119/33 77/115/33
f 98/130/33 97/131/33 103/122/33 104/119/33
f 97/131/33 96/132/33 102/124/33 103/122/33
f 96/132/33 95/133/33 101/126/33 102/124/33
f 95/133/33 94/134/33 100/128/33 101/126/33
f 94/134/33 93/108/33 99/110/33 100/128/33
f 75/135/32 92/136/32 98/130/32 79/114/32
f 92/136/32 91/137/32 97/131/32 98/130/32
f 91/137/32 90/138/32 96/132/32 97/131/32
f 90/138/32 89/139/32 95/133/32 96/132/32
f 89/139/32 88/140/32 94/134/32 95/133/32
f 88/140/32 87/106/32 93/108/32 94/134/32
f 73/141/31 81/142/31 92/136/31 75/135/31
f 81/142/31 82/143/31 91/137/31 92/136/31
f 82/143/31 83/144/31 90/138/31 91/137/31
f 83/144/31 84/145/31 89/139/31 90/138/31
f 84/145/31 85/146/31 88/140/31 89/139/31
f 85/146/31 86/103/31 87/106/31 88/140/31
o Cube.004_Cube.008
v 2.736701 -10.285343 -1.060758
v 2.736701 0.184863 -1.060758
v 2.736701 -10.285343 -2.142883
v 2.736701 0.184863 -2.142883
v 3.818826 -10.285343 -1.060758
v 3.818826 0.184863 -1.060758
v 3.818826 -10.285343 -2.142883
v 3.818826 0.184863 -2.142883
v 2.736701 -5.597683 -1.060758
v 2.736701 -5.378706 -1.060758
v 2.736701 -5.159728 -1.060758
v 2.736701 -4.940751 -1.060758
v 2.736701 -4.721773 -1.060758
v 2.736701 -4.502796 -1.060758
v 2.736701 -4.502796 -2.142883
v 2.736701 -4.721773 -2.142883
v 2.736701 -4.940751 -2.142883
v 2.736701 -5.159728 -2.142883
v 2.736701 -5.378706 -2.142883
v 2.736701 -5.597683 -2.142883
v 3.818826 -4.502796 -2.142883
v 3.818826 -4.721773 -2.142883
v 3.818826 -4.940751 -2.142883
v 3.818826 -5.159728 -2.142883
v 3.818826 -5.378706 -2.142883
v 3.818826 -5.597683 -2.142883
v 3.818826 -4.502796 -1.060758
v 3.818826 -4.721773 -1.060758
v 3.818826 -4.940751 -1.060758
v 3.818826 -5.159728 -1.060758
v 3.818826 -5.378706 -1.060758
v 3.818826 -5.597683 -1.060758
vt 0.555763 0.000000
vt 0.625000 0.000000
vt 0.625000 0.250000
vt 0.555763 0.250000
vt 0.625000 0.500000
vt 0.555763 0.500000
vt 0.625000 0.750000
vt 0.555763 0.750000
vt 0.625000 1.000000
vt 0.555763 1.000000
vt 0.125000 0.500000
vt 0.375000 0.500000
vt 0.375000 0.750000
vt 0.125000 0.750000
vt 0.875000 0.500000
vt 0.875000 0.750000
vt 0.444237 0.750000
vt 0.444236 1.000000
vt 0.375000 1.000000
vt 0.466542 0.750000
vt 0.466542 1.000000
vt 0.488847 0.750000
vt 0.488847 1.000000
vt 0.511153 0.750000
vt 0.511153 1.000000
vt 0.533458 0.750000
vt 0.533458 1.000000
vt 0.444237 0.500000
vt 0.466542 0.500000
vt 0.488847 0.500000
vt 0.511153 0.500000
vt 0.533458 0.500000
vt 0.375000 0.250000
vt 0.444237 0.250000
vt 0.466542 0.250000
vt 0.488847 0.250000
vt 0.511153 0.250000
vt 0.533458 0.250000
vt 0.375000 0.000000
vt 0.444236 0.000000
vt 0.466542 0.000000
vt 0.488847 0.000000
vt 0.511153 0.000000
vt 0.533458 0.000000
vn -1.0000 0.0000 0.0000
vn 0.0000 0.0000 -1.0000
vn 1.0000 0.0000 0.0000
vn 0.0000 0.0000 1.0000
vn 0.0000 -1.0000 0.0000
vn 0.0000 1.0000 0.0000
usemtl None
s off
f 118/147/37 106/148/37 108/149/37 119/150/37
f 119/150/38 108/149/38 112/151/38 125/152/38
f 125/152/39 112/151/39 110/153/39 131/154/39
f 131/154/40 110/153/40 106/155/40 118/156/40
f 107/157/41 111/158/41 109/159/41 105/160/41
f 112/151/42 108/161/42 106/162/42 110/153/42
f 109/159/40 136/163/40 113/164/40 105/165/40
f 136/163/40 135/166/40 114/167/40 113/164/40
f 135/166/40 134/168/40 115/169/40 114/167/40
f 134/168/40 133/170/40 116/171/40 115/169/40
f 133/170/40 132/172/40 117/173/40 116/171/40
f 132/172/40 131/154/40 118/156/40 117/173/40
f 111/158/39 130/174/39 136/163/39 109/159/39
f 130/174/39 129/175/39 135/166/39 136/163/39
f 129/175/39 128/176/39 134/168/39 135/166/39
f 128/176/39 127/177/39 133/170/39 134/168/39
f 127/177/39 126/178/39 132/172/39 133/170/39
f 126/178/39 125/152/39 131/154/39 132/172/39
f 107/179/38 124/180/38 130/174/38 111/158/38
f 124/180/38 123/181/38 129/175/38 130/174/38
f 123/181/38 122/182/38 128/176/38 129/175/38
f 122/182/38 121/183/38 127/177/38 128/176/38
f 121/183/38 120/184/38 126/178/38 127/177/38
f 120/184/38 119/150/38 125/152/38 126/178/38
f 105/185/37 113/186/37 124/180/37 107/179/37
f 113/186/37 114/187/37 123/181/37 124/180/37
f 114/187/37 115/188/37 122/182/37 123/181/37
f 115/188/37 116/189/37 121/183/37 122/182/37
f 116/189/37 117/190/37 120/184/37 121/183/37
f 117/190/37 118/147/37 119/150/37 120/184/37
